<?xml version="1.0" standalone="no"?>
<!DOCTYPE svg PUBLIC "-//W3C//DTD SVG 20010904//EN"
 "http://www.w3.org/TR/2001/REC-SVG-20010904/DTD/svg10.dtd">
<svg version="1.0" xmlns="http://www.w3.org/2000/svg"
 width="128.000000pt" height="128.000000pt" viewBox="0 0 128.000000 128.000000"
 preserveAspectRatio="xMidYMid meet">

<g transform="translate(0.000000,128.000000) scale(0.050000,-0.050000)"
fill="#385d8a" stroke="none">
<path d="M990 2427 c-22 -4 -89 -17 -150 -30 -314 -63 -433 -235 -270 -388
l70 -66 0 -677 0 -676 -80 -45 c-419 -240 418 -550 1123 -417 442 83 618 301
332 410 l-55 21 0 696 0 696 60 53 c117 102 71 239 -112 332 -150 76 -711 132
-918 91z m650 -89 c303 -48 399 -155 233 -261 l-63 -41 55 13 c84 18 66 -7
-39 -53 -243 -107 -976 -69 -1127 58 -261 219 289 385 941 284z m-273 -487
l376 -1 -12 -59 c-20 -102 -182 -336 -287 -416 -182 -138 -167 -295 45 -482
127 -112 250 -287 251 -356 1 -191 -887 -191 -916 0 -15 100 130 319 268 404
188 117 179 276 -28 477 -140 135 -162 167 -200 287 -62 192 -61 195 41 169
47 -12 254 -23 462 -23z m472 -666 c-1 -547 -3 -573 -35 -526 -98 143 -166
218 -267 295 -169 129 -177 284 -18 365 122 63 300 308 301 416 0 14 5 25 10
25 6 0 10 -259 9 -575z m-1039 427 c0 -48 117 -188 209 -251 188 -130 190
-227 8 -385 -67 -58 -153 -151 -190 -206 l-67 -99 0 495 c0 326 7 492 20 484
11 -7 20 -24 20 -38z m-135 -1125 c-68 -28 -9 -119 105 -164 380 -148 1219
-72 1185 108 -8 41 -4 45 29 27 56 -30 37 -99 -40 -151 -238 -160 -1076 -145
-1297 24 -90 68 -82 172 12 167 21 -1 23 -5 6 -11z"/>
<path d="M946 2260 c-248 -53 -221 -171 49 -219 490 -88 1097 73 720 190 -122
38 -636 58 -769 29z"/>
<path d="M960 1670 c11 -33 82 -118 157 -190 l137 -130 3 -170 c6 -219 11
-233 123 -340 168 -161 198 -257 83 -263 -29 -1 -75 -6 -103 -10 -78 -12 -218
-7 -266 11 -24 9 -56 12 -71 7 -15 -6 -35 2 -45 18 -13 20 -17 16 -18 -16 0
-62 111 -96 310 -96 162 0 350 39 350 72 0 50 -91 185 -199 296 l-121 124 0
188 0 187 73 56 c142 109 187 157 217 231 39 96 22 94 -93 -11 -138 -126 -172
-152 -185 -139 -7 6 -12 1 -12 -12 0 -13 -18 -23 -40 -23 -22 0 -40 9 -40 20
0 10 -22 25 -50 32 -27 7 -45 20 -39 30 6 10 1 18 -12 18 -13 0 -59 38 -102
85 -75 81 -78 82 -57 25z"/>
</g>
</svg>
