<?xml version="1.0" encoding="UTF-8" standalone="no"?>
<svg
   xmlns:dc="http://purl.org/dc/elements/1.1/"
   xmlns:cc="http://creativecommons.org/ns#"
   xmlns:rdf="http://www.w3.org/1999/02/22-rdf-syntax-ns#"
   xmlns:svg="http://www.w3.org/2000/svg"
   xmlns="http://www.w3.org/2000/svg"
   xmlns:sodipodi="http://sodipodi.sourceforge.net/DTD/sodipodi-0.dtd"
   xmlns:inkscape="http://www.inkscape.org/namespaces/inkscape"
   version="1.0"
   width="128px"
   height="128px"
   viewBox="0 0 1280 1280"
   preserveAspectRatio="xMidYMid meet"
   id="svg16"
   sodipodi:docname="datetime - Kopie.svg"
   inkscape:version="0.92.4 (5da689c313, 2019-01-14)">
  <metadata
     id="metadata22">
    <rdf:RDF>
      <cc:Work
         rdf:about="">
        <dc:format>image/svg+xml</dc:format>
        <dc:type
           rdf:resource="http://purl.org/dc/dcmitype/StillImage" />
        <dc:title></dc:title>
      </cc:Work>
    </rdf:RDF>
  </metadata>
  <defs
     id="defs20" />
  <sodipodi:namedview
     pagecolor="#ffffff"
     bordercolor="#666666"
     borderopacity="1"
     objecttolerance="10"
     gridtolerance="10"
     guidetolerance="10"
     inkscape:pageopacity="0"
     inkscape:pageshadow="2"
     inkscape:window-width="1920"
     inkscape:window-height="1017"
     id="namedview18"
     showgrid="false"
     inkscape:zoom="2.25"
     inkscape:cx="-3.5254237"
     inkscape:cy="64"
     inkscape:window-x="-8"
     inkscape:window-y="-8"
     inkscape:window-maximized="1"
     inkscape:current-layer="svg16" />
  <rect
     style="fill:#ffffff;fill-opacity:1;stroke-width:10.30630779"
     id="rect831"
     width="865.25348"
     height="887.35046"
     x="219.19098"
     y="205.98283"
     ry="160.77429" />
  <g
     inkscape:groupmode="layer"
     id="layer1"
     inkscape:label="Layer 1" />
  <g
     id="layer101"
     style="fill:#445e7e;stroke:none"
     transform="matrix(1.7811232,0,0,1.7811232,-968.03636,-962.36707)">
    <path
       d="m 815,1227 c -65,-22 -104,-45 -146,-90 -50,-51 -77,-101 -89,-169 -19.76157,-144.86278 8.70469,-244.4915 119,-332 1,0 23.57628,-18.42373 57.57628,-35.42373 55,-27 74.36725,-34.74568 150.36725,-34.74568 73,0 100.49377,10.95076 148.49377,34.95076 248,121 247.5627,478.21865 1.5627,603.21865 -66,33 -178,44 -242,23 z m 90,-104 c 0,-16 5,-28 10,-28 6,0 10,12 10,27 0,24 3,26 25,21 87,-20 140,-62 176,-138 31,-66 31,-83 -3,-87 -16,-2 -28,-7 -28,-13 0,-5 12,-11 28,-13 34,-4 34,-21 3,-87 -88,-190 -353,-188 -438,3 -60,134 15,288 160,332 48,15 57,12 57,-17 z"
       id="path2"
       inkscape:connector-curvature="0"
       sodipodi:nodetypes="cccccscccssscccsccccs" />
    <path
       d="m 750,1052 c 0,-4 29,-37 65,-72 l 65,-64 V 798 c 0,-111 1,-118 20,-118 19,0 20,7 20,100 v 99 l 57,3 c 46,2 59,7 61,21 3,15 -5,17 -65,17 h -69 l -69,70 c -66,66 -85,80 -85,62 z"
       id="path4"
       inkscape:connector-curvature="0" />
    <path
       d="m 667.68357,914 c -12.9336,-12 3.52734,-24 34.09767,-24 17.63672,0 28.21876,6 28.21876,15 0,15 -47.03127,21 -62.31643,9 z"
       id="path6"
       inkscape:connector-curvature="0"
       style="stroke-width:1.08433473" />
  </g>
</svg>
