<svg id="svg" xmlns="http://www.w3.org/2000/svg" xmlns:xlink="http://www.w3.org/1999/xlink" width="400" height="400" viewBox="0, 0, 400,400"><g id="svgg"><path id="path0" d="M26.364 46.045 C 17.599 49.581,20.016 329.689,28.852 334.418 C 36.527 338.525,65.051 339.504,74.248 335.975 C 83.007 332.614,83.007 49.205,74.248 45.844 C 67.482 43.247,32.937 43.392,26.364 46.045 M156.364 46.287 C 146.054 50.211,145.566 56.736,145.510 191.373 C 145.463 305.601,146.275 327.063,150.785 330.806 C 162.189 340.270,289.381 334.253,313.164 323.125 C 412.933 276.442,415.218 103.431,316.648 59.279 C 288.209 46.541,178.960 37.685,156.364 46.287 M282.462 100.025 C 315.395 114.756,328.980 144.793,326.626 197.679 C 323.697 263.470,295.266 290.909,230.024 290.909 L 203.636 290.909 203.636 191.515 C 203.636 136.848,204.832 90.926,206.292 89.465 C 211.434 84.324,263.497 91.542,282.462 100.025 " stroke="none" fill="#385d8a" fill-rule="evenodd"></path></g></svg>