<svg id="svg" xmlns="http://www.w3.org/2000/svg" xmlns:xlink="http://www.w3.org/1999/xlink" width="400" height="400" viewBox="0, 0, 400,400"><g id="svgg"><path id="path0" d="M56.250 47.436 C 33.591 61.861,31.366 64.232,31.298 74.034 C 31.224 84.670,35.979 85.251,52.904 76.675 C 61.505 72.316,69.292 68.750,70.209 68.750 C 71.125 68.750,71.875 94.063,71.875 125.000 L 71.875 181.250 53.125 181.250 L 34.375 181.250 34.375 193.750 L 34.375 206.250 86.126 206.250 L 137.877 206.250 136.907 194.531 L 135.938 182.813 119.531 181.868 L 103.125 180.923 103.125 107.649 L 103.125 34.375 89.844 34.441 C 79.701 34.491,71.763 37.561,56.250 47.436 M170.313 96.645 C 147.487 102.135,142.254 106.820,141.235 122.681 C 140.143 139.672,139.953 139.564,156.250 131.250 C 180.944 118.652,203.125 126.318,203.125 147.451 C 203.125 163.587,192.281 181.466,163.876 212.159 C 138.255 239.846,137.199 241.564,138.111 254.108 L 139.063 267.188 194.531 268.041 L 250.000 268.894 250.000 256.322 L 250.000 243.750 214.063 243.750 C 171.269 243.750,172.116 246.254,203.644 212.947 C 268.852 144.060,249.785 77.529,170.313 96.645 M279.381 208.921 C 263.887 216.148,258.594 226.507,265.131 236.808 C 267.129 239.956,270.603 239.472,281.490 234.533 C 308.420 222.316,328.125 229.306,328.125 251.078 C 328.125 265.402,319.482 272.243,296.027 276.485 C 265.977 281.920,266.218 297.297,296.405 300.626 C 319.064 303.125,330.293 309.161,333.102 320.352 C 339.639 346.400,310.576 361.545,279.205 348.438 C 262.267 341.360,259.375 342.261,259.375 354.615 C 259.375 386.657,346.334 387.220,365.743 355.304 C 381.121 330.018,374.544 303.740,349.814 291.658 L 335.938 284.878 344.530 281.580 C 367.242 272.860,373.090 236.179,354.928 216.360 C 341.466 201.671,303.037 197.887,279.381 208.921 " stroke="none" fill="#385d8a" fill-rule="evenodd"></path></g></svg>