<?xml version="1.0" encoding="UTF-8" standalone="no"?>
<!-- Created with Inkscape (http://www.inkscape.org/) -->

<svg
   xmlns:dc="http://purl.org/dc/elements/1.1/"
   xmlns:cc="http://creativecommons.org/ns#"
   xmlns:rdf="http://www.w3.org/1999/02/22-rdf-syntax-ns#"
   xmlns:svg="http://www.w3.org/2000/svg"
   xmlns="http://www.w3.org/2000/svg"
   xmlns:sodipodi="http://sodipodi.sourceforge.net/DTD/sodipodi-0.dtd"
   xmlns:inkscape="http://www.inkscape.org/namespaces/inkscape"
   viewBox="0 0 128 128"
   version="1.1"
   id="svg45"
   inkscape:version="0.92.4 (5da689c313, 2019-01-14)"
   sodipodi:docname="coded_text.svg">
  <metadata
     id="metadata14">
    <rdf:RDF>
      <cc:Work
         rdf:about="">
        <dc:format>image/svg+xml</dc:format>
        <dc:type
           rdf:resource="http://purl.org/dc/dcmitype/StillImage" />
        <dc:title></dc:title>
      </cc:Work>
    </rdf:RDF>
  </metadata>
  <defs
     id="defs39" />
  <sodipodi:namedview
     id="base"
     pagecolor="#ffffff"
     bordercolor="#666666"
     borderopacity="1.0"
     inkscape:pageopacity="0.0"
     inkscape:pageshadow="2"
     inkscape:zoom="5.2692981"
     inkscape:cx="22.107177"
     inkscape:cy="56.922494"
     inkscape:document-units="mm"
     inkscape:current-layer="layer1"
     showgrid="false"
     inkscape:window-width="1920"
     inkscape:window-height="1017"
     inkscape:window-x="-8"
     inkscape:window-y="-8"
     inkscape:window-maximized="1" />
  <g
     inkscape:label="Ebene 1"
     inkscape:groupmode="layer"
     id="layer1">
    <g
       id="g867">
      <rect
         ry="1.2772362"
         y="14.623565"
         x="22.354731"
         height="21.30629"
         width="80.33593"
         id="rect47"
         style="fill:#385d8a;fill-rule:evenodd;stroke:none;stroke-width:0.38539758" />
      <path
         d="M 22.247644,113.41263 H 0.75807399 v -4.52219 q 2.46330401,-1.78313 4.92660801,-3.78687 2.4816868,-2.00373 3.9706989,-3.45598 2.2243271,-2.150789 3.1618521,-3.7501 0.937527,-1.599308 0.937527,-3.161852 0,-1.875054 -1.213269,-2.88611 -1.194886,-1.029441 -3.4559792,-1.029441 -1.6912233,0 -3.5662757,0.69855 -1.8566696,0.698548 -3.4559788,1.783136 H 1.4750058 v -6.084728 q 1.3051833,-0.569867 3.8420187,-1.139737 2.5552182,-0.569867 5.1104365,-0.569867 5.147203,0 7.849484,2.169178 2.702281,2.150793 2.702281,6.10311 0,2.591983 -1.305184,4.926608 -1.2868,2.334623 -3.952316,4.816313 -1.672841,1.54416 -3.364064,2.84934 -1.691224,1.2868 -2.4081553,1.80152 H 22.247644 Z"
         style="font-style:normal;font-weight:normal;font-size:116.41666412px;line-height:1.25;font-family:sans-serif;letter-spacing:0px;word-spacing:0px;fill:#666666;fill-opacity:1;stroke:none;stroke-width:0.08556388"
         id="path839"
         inkscape:connector-curvature="0" />
      <path
         d="m 46.329196,100.58139 q 0.900761,0.77208 1.433864,1.80152 0.533104,1.02944 0.533104,2.73905 0,1.9302 -0.77208,3.60304 -0.753698,1.67284 -2.334625,2.86773 -1.54416,1.15811 -3.639808,1.78313 -2.077264,0.60664 -5.055288,0.60664 -3.400829,0 -5.845749,-0.5331 -2.42654,-0.53311 -3.952318,-1.19489 v -6.0112 h 0.716932 q 1.580926,0.95591 3.768486,1.65446 2.205944,0.69855 4.02585,0.69855 1.066204,0 2.31624,-0.16545 1.250036,-0.18382 2.11403,-0.77208 0.680166,-0.45957 1.084589,-1.10297 0.404423,-0.66178 0.404423,-1.89344 0,-1.19488 -0.551485,-1.83828 -0.551489,-0.66178 -1.452249,-0.93753 -0.900761,-0.29412 -2.169178,-0.3125 -1.268417,-0.0368 -2.353006,-0.0368 h -1.507394 v -4.889846 h 1.562542 q 1.433864,0 2.536838,-0.09191 1.10297,-0.09191 1.87505,-0.422804 0.808846,-0.349276 1.213269,-0.919142 0.404424,-0.588252 0.404424,-1.709607 0,-0.827231 -0.422805,-1.323569 -0.422808,-0.514719 -1.066207,-0.808846 -0.716933,-0.330891 -1.691226,-0.441186 -0.97429,-0.110299 -1.67284,-0.110299 -1.727989,0 -3.750104,0.606636 -2.022116,0.588252 -3.91555,1.709607 h -0.680166 v -5.937667 q 1.507395,-0.606633 4.099378,-1.158122 2.591986,-0.569866 5.257501,-0.569866 2.591983,0 4.540566,0.459571 1.948586,0.441189 3.217004,1.194884 1.507393,0.900761 2.242707,2.187563 0.735317,1.286799 0.735317,3.014791 0,2.279473 -1.415483,4.080994 -1.415479,1.78314 -3.731719,2.279477 v 0.257358 q 0.937523,0.12868 1.985349,0.514722 1.047823,0.386038 1.911817,1.121351 z"
         style="font-style:normal;font-weight:normal;font-size:116.41666412px;line-height:1.25;font-family:sans-serif;letter-spacing:0px;word-spacing:0px;fill:#666666;fill-opacity:1;stroke:none;stroke-width:0.08556388"
         id="path841"
         inkscape:connector-curvature="0" />
      <path
         d="M 99.979471,91.481871 87.589419,113.41263 H 79.721553 L 92.589559,91.279658 H 78.526665 v -5.239117 h 21.452806 z"
         style="color:#385d8a;font-style:normal;font-variant:normal;font-weight:bold;font-stretch:normal;font-size:116.41666412px;line-height:1.25;font-family:sans-serif;-inkscape-font-specification:'sans-serif Bold';letter-spacing:0px;word-spacing:0px;fill:#666666;fill-opacity:1;stroke:none;stroke-width:0.08556388"
         id="path844"
         inkscape:connector-curvature="0" />
      <path
         d="m 127.27802,104.09251 q 0,2.11403 -0.77208,3.9707 -0.77208,1.85668 -2.16917,3.12509 -1.48902,1.36033 -3.45598,2.07727 -1.94859,0.71693 -4.57734,0.71693 -2.4633,0 -4.5038,-0.66179 -2.02211,-0.68016 -3.47436,-2.05888 -1.67284,-1.58092 -2.55522,-4.08099 -0.88238,-2.50007 -0.88238,-5.97444 0,-3.603034 0.82723,-6.39723 0.82723,-2.794195 2.70228,-4.944992 1.80152,-2.058882 4.66925,-3.198619 2.88611,-1.139736 6.85681,-1.139736 1.34195,0 2.94126,0.183828 1.59931,0.183828 2.07726,0.275743 v 5.386178 h -0.69854 q -0.49634,-0.238976 -1.69123,-0.533101 -1.1765,-0.312509 -2.6839,-0.312509 -3.52951,0 -5.49647,1.727989 -1.96697,1.727988 -2.37139,4.816311 1.41548,-0.845612 2.97802,-1.360331 1.58093,-0.533104 3.40083,-0.533104 1.59931,0 2.95964,0.367657 1.37872,0.367657 2.55522,1.176503 1.52578,1.066208 2.44492,2.867729 0.91914,1.801524 0.91914,4.503794 z m -8.3642,4.13615 q 0.56987,-0.62502 0.90076,-1.47063 0.34928,-0.86399 0.34928,-2.33462 0,-1.34195 -0.38605,-2.18756 -0.38603,-0.864 -1.0662,-1.37872 -0.66178,-0.51472 -1.56254,-0.69855 -0.90076,-0.202208 -1.85667,-0.202208 -0.80885,0 -1.69123,0.183828 -0.88237,0.18383 -1.61769,0.45957 0,0.18383 -0.0184,0.60663 -0.0184,0.42281 -0.0184,1.06621 0,2.26109 0.44119,3.73173 0.45957,1.45224 1.21327,2.22432 0.51472,0.56987 1.21327,0.84561 0.69855,0.25736 1.50739,0.25736 0.60664,0 1.34195,-0.27574 0.73532,-0.27574 1.25004,-0.82723 z"
         style="color:#385d8a;font-style:normal;font-variant:normal;font-weight:bold;font-stretch:normal;font-size:116.41666412px;line-height:1.25;font-family:sans-serif;-inkscape-font-specification:'sans-serif Bold';letter-spacing:0px;word-spacing:0px;fill:#666666;fill-opacity:1;stroke:none;stroke-width:0.08556388"
         id="path846"
         inkscape:connector-curvature="0" />
      <rect
         transform="rotate(90)"
         ry="1.5117161"
         y="-75.386032"
         x="33.995747"
         height="25.217781"
         width="80.33593"
         id="rect48"
         style="fill:#385d8a;fill-rule:evenodd;stroke:none;stroke-width:0.41928419" />
    </g>
  </g>
</svg>
