<?xml version="1.0" encoding="utf-8"?>
<svg width="237" height="40" viewBox="0 0 237 40" xmlns="http://www.w3.org/2000/svg">
  <g fill="none" fill-rule="evenodd">
    <path fill="#E81F76" d="M9.02 24.13L.293 37.203a1.715 1.715 0 0 0-.082 1.772c.305.561.895.91 1.538.91h17.455c.642 0 1.233-.349 1.537-.91a1.715 1.715 0 0 0-.081-1.772l-8.725-13.079a1.755 1.755 0 0 0-1.46-.773c-.586 0-1.133.293-1.457.777z"/>
    <path fill="#E81F76" d="M9.02 15.762L.293 2.682A1.715 1.715 0 0 1 .212.91C.517.35 1.107 0 1.75 0h17.455c.642 0 1.233.35 1.537.91.305.561.273 1.242-.081 1.773l-8.725 13.079a1.75 1.75 0 0 1-1.459.778 1.75 1.75 0 0 1-1.458-.778z" opacity=".2"/>
    <path fill="#E81F76" d="M21.803 3.588l-8.725 13.079a1.72 1.72 0 0 0-.08 1.775c.305.561.897.911 1.54.912h17.45a1.752 1.752 0 0 0 1.538-.914 1.72 1.72 0 0 0-.08-1.773L24.72 3.587a1.754 1.754 0 0 0-1.459-.774c-.586 0-1.134.29-1.458.775z" opacity=".4"/>
    <path fill="#E81F76" d="M24.72 36.453l8.725-13.08a1.72 1.72 0 0 0 .08-1.773 1.752 1.752 0 0 0-1.536-.913h-17.45c-.644 0-1.236.35-1.54.912a1.72 1.72 0 0 0 .079 1.775l8.725 13.079c.324.484.872.775 1.458.775.587 0 1.135-.291 1.459-.775z" opacity=".7"/>
  </g>
</svg>