<svg width="40" height="40" xmlns="http://www.w3.org/2000/svg">

 <g>
  <title>Layer 1</title>
  <g id="svg_1" fill-rule="evenodd" fill="none">
   <path id="svg_2" d="m9.02,24.13l-8.727,13.073a1.715,1.715 0 0 0 -0.082,1.772c0.305,0.561 0.895,0.91 1.538,0.91l17.455,0c0.642,0 1.233,-0.349 1.537,-0.91a1.715,1.715 0 0 0 -0.081,-1.772l-8.725,-13.079a1.755,1.755 0 0 0 -1.46,-0.773c-0.586,0 -1.133,0.293 -1.457,0.777l0.002,0.002z" fill="#E81F76"/>
   <path id="svg_3" opacity="0.2" d="m9.02,15.762l-8.727,-13.08a1.715,1.715 0 0 1 -0.081,-1.772c0.305,-0.56 0.895,-0.91 1.538,-0.91l17.455,0c0.642,0 1.233,0.35 1.537,0.91c0.305,0.561 0.273,1.242 -0.081,1.773l-8.725,13.079a1.75,1.75 0 0 1 -1.459,0.778a1.75,1.75 0 0 1 -1.458,-0.778l0.001,0z" fill="#E81F76"/>
   <path id="svg_4" opacity="0.4" d="m21.803,3.588l-8.725,13.079a1.72,1.72 0 0 0 -0.08,1.775c0.305,0.561 0.897,0.911 1.54,0.912l17.45,0a1.752,1.752 0 0 0 1.538,-0.914a1.72,1.72 0 0 0 -0.08,-1.773l-8.726,-13.08a1.754,1.754 0 0 0 -1.459,-0.774c-0.586,0 -1.134,0.29 -1.458,0.775z" fill="#E81F76"/>
   <path id="svg_5" opacity="0.7" d="m24.72,36.453l8.725,-13.08a1.72,1.72 0 0 0 0.08,-1.773a1.752,1.752 0 0 0 -1.536,-0.913l-17.45,0c-0.644,0 -1.236,0.35 -1.54,0.912a1.72,1.72 0 0 0 0.079,1.775l8.725,13.079c0.324,0.484 0.872,0.775 1.458,0.775c0.587,0 1.135,-0.291 1.459,-0.775z" fill="#E81F76"/>
  </g>
 </g>
</svg>