<?xml version="1.0" standalone="no"?>
<!DOCTYPE svg PUBLIC "-//W3C//DTD SVG 20010904//EN"
 "http://www.w3.org/TR/2001/REC-SVG-20010904/DTD/svg10.dtd">
<svg version="1.0" xmlns="http://www.w3.org/2000/svg"
 width="64.000000pt" height="64.000000pt" viewBox="0 0 64.000000 64.000000"
 preserveAspectRatio="xMidYMid meet">
<metadata>
</metadata>
<g transform="translate(0.000000,64.000000) scale(0.100000,-0.100000)"
fill="#385d8a" stroke="none">
<path d="M496 604 l-29 -25 20 -37 c35 -63 46 -135 41 -263 -4 -103 -9 -125
-33 -174 l-27 -57 26 -27 27 -26 34 36 c45 50 60 121 60 289 0 153 -17 230
-63 280 l-27 30 -29 -26z"/>
<path d="M395 506 l-29 -23 19 -42 c25 -57 26 -184 1 -239 -18 -39 -18 -41 0
-66 27 -37 45 -29 77 34 27 53 28 60 25 165 -4 109 -17 155 -50 183 -11 8 -21
6 -43 -12z"/>
<path d="M230 425 c0 -25 0 -25 -100 -25 l-100 0 0 -70 0 -70 100 0 c100 0
100 0 100 -25 0 -41 33 -30 84 28 25 28 46 58 46 65 0 7 -21 38 -47 68 -51 59
-83 70 -83 29z m69 -76 l24 -20 -23 -24 c-17 -19 -27 -22 -41 -15 -10 6 -56
10 -103 10 l-86 0 0 30 0 29 98 4 c53 1 99 4 102 5 3 1 16 -8 29 -19z"/>
</g>
</svg>
