<?xml version="1.0" standalone="no"?>
<!DOCTYPE svg PUBLIC "-//W3C//DTD SVG 20010904//EN"
 "http://www.w3.org/TR/2001/REC-SVG-20010904/DTD/svg10.dtd">
<svg version="1.0" xmlns="http://www.w3.org/2000/svg"
 width="58.000000pt" height="64.000000pt" viewBox="0 0 58.000000 64.000000"
 preserveAspectRatio="xMidYMid meet">
<metadata>
</metadata>
<g transform="translate(0.000000,64.000000) scale(0.100000,-0.100000)"
fill="#385d8a" stroke="none">
<path d="M25 585 c-17 -16 -25 -35 -25 -60 0 -35 35 -85 60 -85 6 0 10 -60 10
-174 0 -149 2 -175 16 -180 9 -3 65 -6 126 -6 95 0 113 -3 135 -20 36 -28 93
-27 121 3 51 55 12 147 -63 147 -35 0 -85 -35 -85 -60 0 -6 -37 -10 -100 -10
l-100 0 0 90 0 90 100 0 c92 0 101 -2 124 -25 56 -56 146 -20 146 59 0 77 -91
116 -145 61 -14 -13 -25 -29 -25 -35 0 -6 -37 -10 -100 -10 l-100 0 0 33 c0
23 8 41 25 57 56 53 17 150 -60 150 -25 0 -44 -8 -60 -25z"/>
</g>
</svg>
