<?xml version="1.0" encoding="UTF-8" standalone="no"?>
<svg
   xmlns:dc="http://purl.org/dc/elements/1.1/"
   xmlns:cc="http://creativecommons.org/ns#"
   xmlns:rdf="http://www.w3.org/1999/02/22-rdf-syntax-ns#"
   xmlns:svg="http://www.w3.org/2000/svg"
   xmlns="http://www.w3.org/2000/svg"
   xmlns:sodipodi="http://sodipodi.sourceforge.net/DTD/sodipodi-0.dtd"
   xmlns:inkscape="http://www.inkscape.org/namespaces/inkscape"
   version="1.0"
   viewBox="0 0 128 128"
   preserveAspectRatio="xMidYMid meet"
   id="svg16"
   sodipodi:docname="datetime.svg"
   inkscape:version="0.92.4 (5da689c313, 2019-01-14)">
  <metadata
     id="metadata22">
    <rdf:RDF>
      <cc:Work
         rdf:about="">
        <dc:format>image/svg+xml</dc:format>
        <dc:type
           rdf:resource="http://purl.org/dc/dcmitype/StillImage" />
        <dc:title></dc:title>
      </cc:Work>
    </rdf:RDF>
  </metadata>
  <defs
     id="defs20" />
  <sodipodi:namedview
     pagecolor="#ffffff"
     bordercolor="#666666"
     borderopacity="1"
     objecttolerance="10"
     gridtolerance="10"
     guidetolerance="10"
     inkscape:pageopacity="0"
     inkscape:pageshadow="2"
     inkscape:window-width="1920"
     inkscape:window-height="1017"
     id="namedview18"
     showgrid="false"
     inkscape:zoom="2"
     inkscape:cx="-3.5254237"
     inkscape:cy="-10"
     inkscape:window-x="-8"
     inkscape:window-y="-8"
     inkscape:window-maximized="1"
     inkscape:current-layer="svg16" />
  <g
     id="g859">
    <path
       d="m 83.219503,125.98695 c -6.807984,-2.30425 -10.892775,-4.71322 -15.29178,-9.42644 -5.236911,-5.34165 -8.064843,-10.57856 -9.321702,-17.700763 -0.628429,-2.932671 -1.256858,-5.551126 -1.361597,-5.760602 -0.209476,-0.209477 -10.892774,3.037408 -23.670837,7.017465 -12.882801,4.08479 -24.1945291,7.33167 -25.1371731,7.33167 -1.5710733,0 -2.0947644,-4.399 -4.6084817,-43.675837 C 2.2568589,39.682652 1.0000003,19.153961 1.0000003,18.211317 c 0,-1.256858 2.0947644,-2.199502 8.588534,-3.665837 7.9601047,-1.78055 8.6932727,-2.199503 8.6932727,-4.503744 0,-1.5710732 0.733167,-2.7231936 1.780549,-2.9326701 1.152121,-0.2094764 1.885288,0.3142147 1.885288,1.2568587 0,2.7231934 1.675812,2.8279324 11.416466,0.4189529 7.436414,-1.7805498 9.531178,-2.7231938 9.531178,-4.0847906 0,-2.827932 2.199503,-3.5610995 3.770576,-1.4663351 1.361597,1.885288 1.675812,1.885288 9.845393,0 6.284293,-1.4663351 8.79801,-1.5710733 9.635916,-0.7331675 0.733168,0.7331675 1.885288,12.7780627 3.037409,31.3167277 1.047382,16.548639 1.885287,30.164607 1.885287,30.269346 0.104739,0 3.037409,-1.361597 6.598508,-3.142147 5.760602,-2.827932 7.541152,-3.246885 15.501257,-3.246885 7.645886,0 9.740656,0.418953 14.768086,2.93267 25.97508,12.673325 26.39403,49.855394 0.62843,62.947674 -6.91272,3.45636 -18.643401,4.60848 -25.346647,2.40898 z m 9.42644,-10.89278 c 0,-1.67581 0.523691,-2.93267 1.047382,-2.93267 0.628429,0 1.047382,1.25686 1.047382,2.82793 0,2.51372 0.314215,2.7232 2.618456,2.19951 9.112227,-2.09477 14.663347,-6.49377 18.433927,-14.45388 3.24688,-6.912722 3.24688,-8.693271 -0.31422,-9.112224 -1.67581,-0.209477 -2.93267,-0.733168 -2.93267,-1.361597 0,-0.523691 1.25686,-1.152121 2.93267,-1.361597 3.5611,-0.418953 3.5611,-2.199503 0.31422,-9.112225 -9.21696,-19.900262 -36.972592,-19.690786 -45.875341,0.314214 -6.284293,14.034922 1.571073,30.164609 16.758115,34.773089 5.027435,1.57107 5.970079,1.25686 5.970079,-1.78055 z M 36.92521,91.528071 c 19.900262,-6.074817 21.78555,-6.807984 22.413979,-9.216963 0.314215,-1.466335 1.466335,-4.399005 2.513717,-6.49377 1.885288,-3.770576 1.885288,-4.922696 0.209477,-34.039921 -0.942644,-16.548639 -2.094765,-30.58356 -2.513718,-31.107252 -0.418953,-0.523691 -3.037408,-0.314214 -5.970078,0.418953 -4.922697,1.152121 -5.236911,1.361597 -5.027435,4.503744 0.104738,2.304241 -0.418953,3.351623 -1.675811,3.665837 -1.361597,0.314215 -1.885288,-0.314214 -1.885288,-2.199502 0,-4.189529 0.733167,-4.189529 -16.967592,0.418953 -3.142147,0.837905 -3.875314,1.571073 -4.189529,3.875314 -0.418953,3.456361 -3.351623,3.770576 -3.770576,0.418953 -0.209476,-1.571074 -0.942644,-2.304241 -1.780549,-1.885288 -0.837906,0.209476 -3.142147,0.837906 -5.132173,1.256858 -3.6658379,0.62843 -3.7705761,0.733168 -3.7705761,5.551126 0,2.618456 0.9426441,18.014974 2.0947641,34.14466 1.152121,16.129686 2.094765,31.107251 2.094765,33.306754 0,2.094764 0.314214,3.875314 0.837905,3.875314 0.418953,0.104738 10.578561,-2.827932 22.518718,-6.49377 z"
       id="path2"
       inkscape:connector-curvature="0"
       style="fill:#445e7e;stroke:none;stroke-width:0.10473822" />
    <path
       d="m 76.411519,107.65776 c 0,-0.41896 3.037408,-3.87532 6.807984,-7.54115 l 6.807984,-6.703251 v -12.35911 c 0,-11.625942 0.104739,-12.35911 2.094765,-12.35911 1.990026,0 2.094764,0.733168 2.094764,10.473822 v 10.369084 l 5.970074,0.314215 c 4.81796,0.209476 6.17956,0.733167 6.38904,2.199502 0.31421,1.571074 -0.5237,1.78055 -6.807988,1.78055 h -7.226937 l -7.226938,7.331678 c -6.912722,6.91272 -8.902748,8.37906 -8.902748,6.49377 z"
       id="path4"
       inkscape:connector-curvature="0"
       style="fill:#445e7e;stroke:none;stroke-width:0.10473822" />
    <path
       d="m 68.765629,93.203883 c -1.152121,-1.256859 0.314214,-2.513717 3.037408,-2.513717 1.571073,0 2.513717,0.628429 2.513717,1.571073 0,1.571073 -4.189528,2.199502 -5.551125,0.942644 z"
       id="path6"
       inkscape:connector-curvature="0"
       style="fill:#445e7e;stroke:none;stroke-width:0.10473822" />
    <path
       d="m 26.870341,84.510611 c -0.837906,-3.980053 0,-6.703247 6.179555,-20.005 C 36.92521,56.021815 38.182068,51.937024 38.496283,46.90959 39.229451,36.85472 35.14466,34.236265 28.65089,40.520558 l -3.246884,3.142147 -0.62843,-3.875314 c -0.837906,-4.922697 1.361597,-8.902749 6.598508,-11.835419 5.760602,-3.246885 9.740655,-2.827932 12.987539,1.047382 1.571074,1.78055 2.827932,4.608482 2.827932,6.49377 0.523691,11.835418 -1.361597,19.062356 -8.379057,33.097277 -1.885288,3.665838 -3.142147,6.807984 -2.93267,7.122199 0.314214,0.209476 3.665837,-0.418953 7.541151,-1.571073 7.64589,-2.304241 8.27432,-1.990026 7.64589,3.665837 -0.314214,2.723194 -1.047382,3.142147 -9.007486,5.760603 -14.244398,4.608481 -14.453875,4.608481 -15.187042,0.942644 z"
       id="path8"
       inkscape:connector-curvature="0"
       style="fill:#445e7e;stroke:none;stroke-width:0.10473822" />
    <path
       d="m 84.790576,115.7226 c -9.740654,-4.39901 -14.453874,-9.95013 -16.653377,-19.795524 -0.733167,-3.246884 -0.628429,-4.08479 0.209477,-3.246884 1.78055,1.780549 6.703246,1.466335 6.703246,-0.418953 0,-1.047382 -1.152121,-1.571073 -3.5611,-1.571073 -2.618455,0 -3.456361,-0.418953 -3.456361,-1.885288 0,-3.351624 5.236911,-12.673325 8.693272,-15.396519 1.885288,-1.466335 3.980053,-3.142146 4.71322,-3.770576 0.62843,-0.523691 1.256859,-0.733167 1.256859,-0.418953 0,0.314215 1.675811,-0.209476 3.770576,-1.047382 2.723194,-1.15212 4.189529,-1.256858 5.551125,-0.418953 1.466336,0.942644 1.466336,1.047383 -0.104738,0.523691 -1.780549,-0.523691 -1.885288,0.523692 -1.885288,12.254372 v 12.673325 l -6.912722,7.017457 c -3.875314,3.87532 -6.703246,7.43642 -6.284293,8.06485 0.314214,0.52369 3.980052,-2.51372 8.169581,-6.80799 l 7.64589,-7.750626 6.598508,0.209476 c 4.817959,0.209477 6.912719,-0.209476 7.541149,-1.256858 1.3616,-2.094765 -0.73317,-3.037409 -7.017458,-3.037409 H 94.217016 V 78.750008 c 0,-6.074816 0.418953,-11.206989 0.942644,-11.521204 1.78055,-1.15212 12.14963,4.084791 15.29178,7.64589 3.87531,4.399006 7.54115,11.521204 7.01746,14.034922 -0.20948,1.15212 -1.3616,1.78055 -3.03741,1.78055 -3.14214,0 -2.72319,2.513717 0.52369,2.93267 3.03741,0.418953 3.24689,3.142146 0.73317,8.169584 -3.45636,7.01746 -8.06484,11.5212 -14.55861,13.93018 -3.246886,1.15212 -6.074818,2.1995 -6.179556,2.1995 -0.209477,0 -0.104739,-1.67581 0.104738,-3.66583 0.314215,-2.82794 0.104738,-3.66584 -1.152121,-3.66584 -1.047382,0 -1.780549,1.15212 -1.990026,3.35162 -0.418953,4.08479 -1.256858,4.29427 -7.122199,1.78055 z"
       id="path11"
       inkscape:connector-curvature="0"
       style="fill:#f8f8f9;stroke:none;stroke-width:0.10473822" />
    <path
       d="M 14.197016,94.670218 C 13.882801,92.78493 12.940157,79.168961 11.997513,64.505611 11.054869,49.84226 10.112225,34.445741 9.6932726,30.256213 L 9.0648432,22.715061 13.463848,21.56294 c 4.608482,-1.256858 6.389032,-0.733167 6.389032,1.675812 0,0.837906 0.942644,1.466335 2.094764,1.466335 1.675812,0 2.094765,-0.733168 2.094765,-3.142147 0,-1.675811 0.314214,-3.142146 0.837905,-3.246885 0.837906,-0.104738 1.990027,-0.314214 10.683299,-2.513717 1.990026,-0.523691 3.351623,-0.837906 7.331675,-1.78055 1.047383,-0.209476 1.466335,0.418953 1.256859,1.885288 -0.314215,2.408979 2.199503,5.132173 3.980052,4.084791 0.523691,-0.314215 1.047383,-2.304241 1.047383,-4.294267 0,-1.990026 0.314214,-3.561099 0.837905,-3.665838 0.418953,0 1.675812,-0.314214 2.827932,-0.523691 6.598508,-1.5710731 7.122199,-1.256858 7.436414,4.294267 0.628429,12.044896 1.571073,27.860367 2.199502,37.182068 0.942644,15.082304 0.733168,18.957618 -1.571073,24.089791 -1.15212,2.513717 -1.990026,4.922696 -1.675811,5.341649 0.837905,1.466335 -2.723194,2.93267 -22.099765,8.798011 -10.892775,3.351623 -20.423953,6.284293 -21.15712,6.493769 -0.733168,0.314215 -1.466335,-0.942644 -1.78055,-3.037408 z m 15.605995,-7.226937 c 0.418953,-0.62843 1.361597,-0.837906 2.094764,-0.523691 0.733168,0.209476 1.885288,-0.104739 2.513717,-0.733168 0.62843,-0.628429 1.152121,-0.733168 1.152121,-0.314215 0,0.523691 0.733167,0.314215 1.571073,-0.418953 0.837906,-0.733167 1.571073,-0.942643 1.571073,-0.523691 0,0.418953 0.733168,0.209477 1.571074,-0.523691 0.837906,-0.628429 1.990026,-0.942644 2.513717,-0.628429 0.523691,0.418953 1.256859,0.209476 1.675812,-0.418953 0.418952,-0.628429 1.047382,-0.837906 1.571073,-0.523691 0.523691,0.314215 1.15212,0.104738 1.571073,-0.523691 0.418953,-0.628429 1.152121,-0.837906 1.675812,-0.523691 0.523691,0.418953 0.942644,0.104738 0.942644,-0.523691 0,-0.62843 0.418953,-0.942644 0.837905,-0.62843 1.361597,0.837906 0.837906,-7.122199 -0.523691,-8.588534 -0.733167,-0.733167 -1.361596,-0.942644 -1.361596,-0.418953 0,0.62843 -1.047383,0.837906 -2.304241,0.418953 -1.571074,-0.418953 -1.990027,-0.209476 -1.361597,0.733168 0.523691,1.047382 0.209476,1.15212 -1.466335,0.628429 -1.256859,-0.418953 -2.199503,-0.209476 -2.199503,0.418953 0,0.628429 -0.733167,0.837906 -1.571073,0.523691 -0.837906,-0.418953 -1.571074,-0.104738 -1.571074,0.523691 0,0.62843 -0.628429,0.837906 -1.466335,0.523691 -0.837905,-0.314214 -1.256858,-1.256858 -0.942644,-2.094764 0.314215,-0.837906 1.047383,-1.15212 1.675812,-0.733168 0.628429,0.418953 0.837906,0 0.418953,-1.047382 -0.314215,-1.047382 -0.209477,-1.78055 0.418953,-1.78055 0.628429,0 0.733167,-0.418952 0.418953,-1.047382 -0.314215,-0.523691 -0.104739,-1.047382 0.523691,-1.047382 0.628429,0 0.837905,-0.418953 0.523691,-1.047382 -0.314215,-0.523691 -0.104738,-1.047382 0.523691,-1.047382 0.628429,0 0.837906,-0.418953 0.523691,-1.047382 -0.314215,-0.523692 -0.209476,-1.047383 0.314215,-1.047383 0.523691,0 1.361597,-1.047382 1.780549,-2.304241 1.256859,-3.770575 1.885288,-6.284293 1.675812,-7.331675 0,-0.523691 0.418953,-0.837906 1.047382,-0.837906 0.628429,0 0.942644,-0.628429 0.628429,-1.466335 -0.314214,-0.837906 -0.314214,-1.78055 0.104739,-2.094764 1.047382,-1.152121 0.942644,-17.386545 -0.209477,-17.386545 -0.523691,0 -0.733167,-0.209476 -0.418953,-0.523691 0.314215,-0.314214 -0.733167,-1.990026 -2.408979,-3.665837 -2.723193,-2.723194 -5.760602,-3.351624 -9.321701,-2.094765 -0.314215,0.209477 -0.837906,0.209477 -1.256859,0.104738 -0.523691,0 -0.837906,0.418953 -0.837906,1.047383 0,0.523691 -0.418953,0.837905 -0.942644,0.523691 -0.523691,-0.314215 -1.256858,0.104738 -1.571073,0.942644 -0.314215,0.837905 -1.15212,1.466335 -1.885288,1.361596 -0.733167,-0.209476 -1.256859,0.209477 -1.361597,0.733168 0,0.628429 -0.628429,1.990026 -1.256858,3.142147 -0.837906,1.675811 -1.047383,6.284293 -0.418953,10.892774 0.104738,0.209477 1.675811,-1.15212 3.561099,-3.142146 1.885288,-1.990026 4.189529,-3.5611 5.027435,-3.456361 3.875314,0.209476 4.608481,1.466335 4.608481,7.750628 0,3.456361 -0.314214,6.284293 -0.837905,6.284293 -0.523691,0 -0.733168,0.733168 -0.418953,1.571073 0.418953,0.837906 0.209476,1.78055 -0.418953,2.094765 -0.523691,0.418953 -0.733168,1.15212 -0.418953,1.675811 0.418953,0.523691 0.104738,0.942644 -0.523691,0.942644 -0.628429,0 -0.837906,0.523691 -0.523691,1.047383 0.314214,0.628429 0.104738,1.047382 -0.62843,1.047382 -0.733167,0 -1.047382,0.314214 -0.628429,0.628429 0.314215,0.418953 -0.523691,2.723194 -1.885288,5.132173 -1.361597,2.513717 -2.199502,4.817958 -1.885288,5.132173 0.418953,0.314214 0,0.628429 -0.733167,0.628429 -0.733168,0 -1.047383,0.314215 -0.733168,0.733167 0.418953,0.314215 0.104738,1.675812 -0.628429,2.827932 -1.047382,1.675812 -1.675812,11.102252 -0.837906,12.98754 0.314215,0.628429 2.199503,0.104738 2.723194,-0.942644 z"
       id="path13"
       inkscape:connector-curvature="0"
       style="fill:#f8f8f9;stroke:none;stroke-width:0.10473822" />
  </g>
</svg>
