<svg id="svg" xmlns="http://www.w3.org/2000/svg" xmlns:xlink="http://www.w3.org/1999/xlink" width="400" height="400" viewBox="0, 0, 400,400"><g id="svgg"><path id="path0" d="M157.661 29.100 C 82.411 40.117,44.275 97.052,48.121 192.633 C 52.352 297.758,125.972 352.132,223.636 322.266 C 238.132 317.833,238.256 317.879,260.000 335.882 C 311.503 378.523,346.630 384.974,348.355 352.107 L 349.437 331.487 324.718 318.393 C 311.123 311.191,296.022 302.240,291.161 298.501 L 282.321 291.704 291.787 280.454 C 321.091 245.628,330.209 156.472,310.167 100.736 C 290.562 46.218,231.199 18.333,157.661 29.100 M216.514 79.562 C 276.920 107.001,277.552 242.423,217.418 273.114 C 167.626 298.527,118.373 268.687,108.855 207.342 C 94.265 113.309,148.664 48.742,216.514 79.562 " stroke="none" fill="#385d8a" fill-rule="evenodd"></path></g></svg>