<?xml version="1.0" encoding="UTF-8"?>
<svg width="143px" height="24px" viewBox="0 0 143 24" version="1.1" xmlns="http://www.w3.org/2000/svg" xmlns:xlink="http://www.w3.org/1999/xlink">
    <title>62320525-5C9E-4387-B39C-72514BE447D3</title>
    <defs>
        <path d="M5.43975502,9.48379254 L0.174632639,1.61426256 C-0.0391788252,1.29476905 -0.058008876,0.885098271 0.12561322,0.547785166 C0.309235316,0.210472062 0.665624014,0 1.05338378,0 L11.58609,0 C11.9738498,0 12.3302385,0.210472062 12.5138606,0.547785166 C12.6974827,0.885098271 12.6786526,1.29476905 12.4648412,1.61426256 L7.19971878,9.48379254 C7.00484425,9.77618885 6.67416749,9.95220881 6.3197369,9.95220881 C5.96530631,9.95220881 5.63462954,9.77618885 5.43975502,9.48379254 L5.43975502,9.48379254 Z" id="path-1"></path>
        <path d="M13.1540577,2.15883306 L7.88893536,10.028363 C7.67533232,10.348616 7.65691064,10.7588135 7.84096667,11.0964871 C8.02502269,11.4341607 8.3818613,11.6448309 8.77014799,11.6450567 L19.3003927,11.6450567 C19.6882379,11.6439392 20.0442498,11.4329222 20.2276987,11.0954197 C20.4111477,10.7579171 20.3925065,10.3482521 20.1791439,10.028363 L14.9140215,2.15883306 C14.7183756,1.86752483 14.3879763,1.69239548 14.0340396,1.69239548 C13.6801029,1.69239548 13.3497036,1.86752483 13.1540577,2.15883306 L13.1540577,2.15883306 Z" id="path-2"></path>
        <path d="M14.9140215,21.9335494 L20.1791439,14.0640194 C20.3925065,13.7441304 20.4111477,13.3344653 20.2276987,12.9969628 C20.0442498,12.6594603 19.6882379,12.4484433 19.3003927,12.4473258 L8.77014799,12.4473258 C8.3818613,12.4475516 8.02502269,12.6582218 7.84096667,12.9958954 C7.65691064,13.333569 7.67533232,13.7437665 7.88893536,14.0640194 L13.1540577,21.9335494 C13.3497036,22.2248577 13.6801029,22.399987 14.0340396,22.399987 C14.3879763,22.399987 14.7183756,22.2248577 14.9140215,21.9335494 Z" id="path-3"></path>
    </defs>
    <g id="Homepage" stroke="none" stroke-width="1" fill="none" fill-rule="evenodd">
        <g id="Homepage-V2" transform="translate(-123.000000, -6549.000000)">
            <g id="Footer" transform="translate(0.000000, 6412.000000)">
                <g id="InnovaccerLogoBlack" transform="translate(123.000000, 137.000000)">
                    <path d="M63.5210208,7.53403566 C66.9744882,7.53403566 70.1276541,9.98703404 70.1276541,13.7917342 C70.1276541,17.5964344 66.9867956,20.0226904 63.5333283,20.0226904 C60.0798609,20.0226904 56.9513099,17.5599676 56.9513099,13.7917342 C56.9513099,9.99675851 60.0675535,7.53403566 63.5210208,7.53403566 Z M87.7715985,7.55591572 C89.0171113,7.55591572 90.6540007,8.0178282 91.5376748,9.1458671 L91.5376748,7.83792545 L95.3529809,7.84035656 L95.3529809,19.7917342 L91.5425978,19.7917342 L91.5425978,18.4327391 C90.6589237,19.560778 89.0220343,20.0226904 87.7765215,20.0226904 C84.7661219,20.0226904 81.9083346,17.6620746 81.9083346,13.7917342 C81.9083346,9.92139384 84.761199,7.55591572 87.7715985,7.55591572 Z M102.988516,7.53403566 C105.324468,7.53403566 107.116431,8.66207455 108.285638,10.3541329 L105.331852,12.2017828 C104.784448,11.483629 103.930603,11.0570339 103.020515,11.0470016 C101.255629,11.0470016 100.216881,12.2771475 100.216881,13.7649919 C100.216881,15.2528363 101.255629,16.5097245 103.020515,16.5097245 C103.929873,16.4967567 104.782486,16.0707777 105.331852,15.3549433 L108.285638,17.2001621 C107.116431,18.9019449 105.331852,20.0226904 102.988516,20.0226904 C99.456281,20.0226904 96.3154226,17.5599676 96.3154226,13.7649919 C96.3154226,9.97001621 99.456281,7.53403566 102.988516,7.53403566 Z M114.801196,7.53403566 C117.139609,7.53403566 118.931572,8.66207455 120.098318,10.3541329 L117.144532,12.2017828 C116.596881,11.4839208 115.743191,11.0574035 114.833195,11.0470016 C113.068309,11.0470016 112.029561,12.2771475 112.029561,13.7649919 C112.029561,15.2528363 113.068309,16.5097245 114.833195,16.5097245 C115.742553,16.4967567 116.595166,16.0707777 117.144532,15.3549433 L120.098318,17.2001621 C118.931572,18.9019449 117.144532,20.0226904 114.801196,20.0226904 C111.271422,20.0226904 108.128103,17.5599676 108.128103,13.7649919 C108.128103,9.97001621 111.271422,7.53403566 114.801196,7.53403566 Z M126.473571,7.53403566 C129.951653,7.53403566 132.861132,9.91896272 132.861132,13.560778 C132.873439,13.8938412 132.848824,14.3290113 132.797133,14.9197731 L123.935777,14.9197731 C124.297616,16.047812 125.311749,16.7139384 126.764027,16.7139384 C127.894928,16.7162558 128.986639,16.3048786 129.828579,15.5591572 L131.797769,18.0218801 C130.601486,19.3055105 128.526452,20.0226904 126.473571,20.0226904 C122.658265,20.0226904 119.930936,17.4846029 119.930936,13.8427877 C119.930936,9.95299838 122.995489,7.53403566 126.473571,7.53403566 Z M28.727891,7.84035656 L28.727891,19.7917342 L24.8855085,19.7917342 L24.8855085,7.84035656 L28.727891,7.84035656 Z M37.7123214,7.53888968 C40.9294859,7.53403566 42.5146841,9.68800648 42.5146841,13.3541329 L42.5146841,19.7917342 L38.6723016,19.7917342 L38.6723016,13.7917342 C38.6723016,11.9440843 37.5301713,11.2512156 36.5677296,11.2512156 C35.5289817,11.2512156 34.2317777,11.7909238 34.2317777,13.7917342 L34.2317777,19.7917342 L30.3893952,19.7917342 L30.3893952,7.84035656 L34.2317777,7.84035656 L34.2317777,9.97001621 C34.6477691,8.26823339 36.5677296,7.53888968 37.7123214,7.53888968 Z M51.3415793,7.53888968 C54.5612053,7.53403566 56.1464034,9.68800648 56.1464034,13.3541329 L56.1464034,19.7917342 L52.304021,19.7917342 L52.304021,13.7917342 C52.304021,11.9440843 51.1618907,11.2512156 50.1994489,11.2512156 C49.1607011,11.2512156 47.863497,11.7909238 47.863497,13.7917342 L47.863497,19.7917342 L44.0211146,19.7917342 L44.0211146,7.84035656 L47.863497,7.84035656 L47.863497,9.97001621 C48.2794885,8.26823339 50.1994489,7.53888968 51.3415793,7.53888968 Z M73.3398956,7.84035656 L75.9884565,14.9440843 L78.609941,7.84035656 L82.7870858,7.84035656 L77.6450378,19.7917342 L74.2949529,19.7917342 L69.1553664,7.84035656 L73.3398956,7.84035656 Z M143,7.89141005 L142.091711,11.5089141 C141.56337,11.2052185 140.962743,11.0457969 140.351439,11.0470016 C138.845009,11.0470016 137.599496,12.2771475 137.599496,15.8168558 L137.599496,19.7917342 L133.757113,19.7917342 L133.757113,7.84035656 L137.547805,7.84035656 L137.547805,10.3541329 C138.249329,8.38006483 139.701606,7.53403566 141.183422,7.53403566 C141.809103,7.50883053 142.431851,7.63134336 143,7.89141005 Z M63.5210208,11.0470016 C62.0416667,11.0470016 60.8453836,12.1507293 60.8453836,13.7917342 C60.8453836,15.4327391 62.0392052,16.5097245 63.5210208,16.5097245 C65.0028365,16.5097245 66.1892736,15.4327391 66.1892736,13.7917342 L66.1941966,13.7917342 C66.1941966,12.1507293 65.000375,11.0470016 63.5210208,11.0470016 Z M86.6344683,11.7584845 C85.8234635,12.544571 85.5758736,13.7377545 86.0084156,14.7755535 C86.4409575,15.8133524 87.4672878,16.4886024 88.6035814,16.483017 C90.1186901,16.4871641 91.3559037,15.2879641 91.3801396,13.7917342 C91.4071803,12.6697637 90.7429009,11.643587 89.7004509,11.1969566 C88.6580009,10.7503262 87.4454731,10.9723979 86.6344683,11.7584845 Z M126.569569,10.7431118 C125.400362,10.7431118 124.309923,11.2560778 123.921008,12.6880065 L129.031057,12.6880065 C129.006442,11.5089141 127.940618,10.7431118 126.569569,10.7431118 Z M26.805469,1.60940032 C27.4138092,1.58773247 28.0052211,1.80966458 28.4455113,2.22483952 C28.8858015,2.64001446 29.1376395,3.21323109 29.1438824,3.81442464 C29.1129747,5.06036005 28.0670472,6.0466252 26.805469,6.01944895 C25.5082649,6.01944895 24.4178259,5.02025932 24.4178259,3.81442464 C24.4178259,2.55753647 25.5082649,1.60940032 26.805469,1.60940032 Z" id="Combined-Shape" fill="#FFFFFF" fill-rule="nonzero"></path>
                    <g id="Group">
                        <path d="M5.43975502,14.5186386 L0.174632639,22.3857374 C-0.0391788252,22.7052309 -0.058008876,23.1149017 0.12561322,23.4522148 C0.309235316,23.7895279 0.665624014,24 1.05338378,24 L11.58609,24 C11.9738498,24 12.3302385,23.7895279 12.5138606,23.4522148 C12.6974827,23.1149017 12.6786526,22.7052309 12.4648412,22.3857374 L7.19971878,14.5162075 C7.00366072,14.225169 6.67301329,14.0504957 6.31907639,14.0509836 C5.96513948,14.0514735 5.63498805,14.2270596 5.43975502,14.5186386 Z" id="Path" fill="#E31C79"></path>
                        <g id="Path">
                            <use fill="#E31C79" xlink:href="#path-1"></use>
                            <use fill-opacity="0.8" fill="#FFFFFF" xlink:href="#path-1"></use>
                        </g>
                        <g id="Path">
                            <use fill="#E31C79" xlink:href="#path-2"></use>
                            <use fill-opacity="0.6" fill="#FFFFFF" xlink:href="#path-2"></use>
                        </g>
                        <g id="Path">
                            <use fill="#E31C79" xlink:href="#path-3"></use>
                            <use fill-opacity="0.3" fill="#FFFFFF" xlink:href="#path-3"></use>
                        </g>
                    </g>
                </g>
            </g>
        </g>
    </g>
</svg>