<?xml version="1.0" standalone="no"?>
<!DOCTYPE svg PUBLIC "-//W3C//DTD SVG 20010904//EN"
 "http://www.w3.org/TR/2001/REC-SVG-20010904/DTD/svg10.dtd">
<svg version="1.0" xmlns="http://www.w3.org/2000/svg"
 width="64.000000pt" height="64.000000pt" viewBox="0 0 64.000000 64.000000"
 preserveAspectRatio="xMidYMid meet">
<metadata>
</metadata>
<g transform="translate(0.000000,64.000000) scale(0.100000,-0.100000)"
fill="#385d8a" stroke="none">
<path d="M131 590 c-30 -26 -22 -44 31 -71 33 -18 65 -24 138 -27 106 -5 167
7 205 41 l25 22 -24 30 -24 30 -33 -19 c-45 -26 -198 -28 -246 -3 -40 21 -43
21 -72 -3z"/>
<path d="M19 484 l-24 -26 32 -28 c45 -41 121 -61 247 -67 161 -8 285 17 333
69 l22 23 -25 29 -25 29 -37 -20 c-110 -60 -337 -61 -454 -2 -21 11 -39 19
-41 19 -2 0 -14 -12 -28 -26z"/>
<path d="M240 230 c0 -89 0 -90 -25 -90 -42 0 -30 -32 31 -83 31 -26 61 -47
68 -47 6 0 37 21 69 48 61 51 74 82 32 82 -24 0 -24 2 -27 88 l-3 87 -72 3
-73 3 0 -91z"/>
</g>
</svg>
