<!DOCTYPE svg PUBLIC "-//W3C//DTD SVG 20010904//EN" "http://www.w3.org/TR/2001/REC-SVG-20010904/DTD/svg10.dtd">
<svg version="1.0" xmlns="http://www.w3.org/2000/svg" width="133px" height="133px" viewBox="0 0 1330 1330" preserveAspectRatio="xMidYMid meet">
<g id="layer101" fill="#c70202" stroke="none">
 <path d="M926 1185 c-47 -63 -90 -115 -95 -115 -4 0 -48 30 -97 67 -49 37 -103 77 -120 89 l-30 23 -37 -49 c-20 -27 -37 -54 -37 -59 0 -5 52 -49 115 -97 63 -48 115 -91 115 -96 0 -5 -37 -57 -82 -116 -45 -59 -85 -112 -89 -117 -5 -7 14 -28 46 -53 l54 -42 92 120 c51 66 95 120 99 120 4 0 60 -40 125 -90 l117 -89 39 49 c21 27 39 53 39 58 0 5 -52 49 -115 97 -63 48 -115 91 -115 95 0 4 38 58 85 119 47 61 86 115 87 120 3 10 -85 81 -100 81 -5 0 -48 -52 -96 -115z"/>
 </g>
<g id="layer102" fill="#77933d" stroke="none">
 <path d="M193 840 c-29 -17 -59 -43 -67 -59 -27 -51 -53 -278 -41 -356 15 -105 155 -189 200 -121 9 14 23 64 30 112 14 83 35 134 55 134 16 0 156 -129 330 -305 211 -213 269 -255 304 -220 23 24 20 94 -6 143 -28 50 -439 484 -558 589 -86 76 -144 113 -177 113 -10 0 -42 -14 -70 -30z"/>
 </g>
<g id="layer103" fill="#dd6363" stroke="none">
 </g>
<g id="layer104" fill="#ecaaaa" stroke="none">
 <path d="M590 1257 c0 -3 18 -20 40 -37 22 -17 40 -29 40 -27 0 3 -18 20 -40 37 -22 17 -40 29 -40 27z"/>
 <path d="M720 1156 c0 -3 25 -24 55 -47 45 -34 58 -40 68 -29 9 10 9 11 -1 6 -8 -5 -34 8 -67 33 -30 23 -55 39 -55 37z"/>
 <path d="M954 989 c-3 -6 -2 -14 2 -18 31 -28 177 -132 167 -121 -6 8 -45 40 -87 70 -42 31 -74 61 -71 68 5 15 -1 16 -11 1z"/>
 </g>
<g id="layer105" fill="#bcc8a2" stroke="none">
 <path d="M435 760 c10 -11 20 -20 23 -20 3 0 -3 9 -13 20 -10 11 -20 20 -23 20 -3 0 3 -9 13 -20z"/>
 <path d="M92 670 c0 -14 2 -19 5 -12 2 6 2 18 0 25 -3 6 -5 1 -5 -13z"/>
 <path d="M82 570 c0 -14 2 -19 5 -12 2 6 2 18 0 25 -3 6 -5 1 -5 -13z"/>
 <path d="M690 505 c30 -30 57 -55 59 -55 3 0 -19 25 -49 55 -30 30 -57 55 -59 55 -3 0 19 -25 49 -55z"/>
 <path d="M620 315 c91 -91 167 -165 170 -165 3 0 -69 74 -160 165 -91 91 -167 165 -170 165 -3 0 69 -74 160 -165z"/>
 <path d="M130 325 c13 -14 26 -25 28 -25 3 0 -5 11 -18 25 -13 14 -26 25 -28 25 -3 0 5 -11 18 -25z"/>
 <path d="M895 290 c27 -27 51 -50 54 -50 3 0 -17 23 -44 50 -27 28 -51 50 -54 50 -3 0 17 -22 44 -50z"/>
 <path d="M281 297 c-13 -21 -12 -21 5 -5 10 10 16 20 13 22 -3 3 -11 -5 -18 -17z"/>
 <path d="M902 44 c10 -10 20 -16 22 -13 3 3 -5 11 -17 18 -21 13 -21 12 -5 -5z"/>
 </g>
<g id="layer106" fill="#efdfd8" stroke="none">
 <path d="M1121 1233 c7 -12 15 -20 18 -17 3 2 -3 12 -13 22 -17 16 -18 16 -5 -5z"/>
 <path d="M920 1200 c-17 -22 -29 -40 -27 -40 3 0 20 18 37 40 17 22 29 40 27 40 -3 0 -20 -18 -37 -40z"/>
 <path d="M836 1095 c-11 -8 -15 -15 -9 -15 6 0 16 7 23 15 16 19 11 19 -14 0z"/>
 <path d="M984 1018 l-19 -23 23 19 c21 18 27 26 19 26 -2 0 -12 -10 -23 -22z"/>
 <path d="M824 808 l-19 -23 23 19 c21 18 27 26 19 26 -2 0 -12 -10 -23 -22z"/>
 <path d="M574 745 c-22 -29 -25 -38 -14 -48 10 -9 11 -9 6 1 -5 8 3 27 19 47 14 19 24 35 21 35 -3 0 -17 -16 -32 -35z"/>
 <path d="M530 675 c30 -30 57 -55 59 -55 3 0 -19 25 -49 55 -30 30 -57 55 -59 55 -3 0 19 -25 49 -55z"/>
 <path d="M750 447 c0 -2 15 -16 33 -33 l32 -29 -29 33 c-28 30 -36 37 -36 29z"/>
 <path d="M825 110 c21 -22 41 -40 44 -40 3 0 -13 18 -34 40 -21 22 -41 40 -44 40 -3 0 13 -18 34 -40z"/>
 </g>

</svg>