<svg id="svg" xmlns="http://www.w3.org/2000/svg" xmlns:xlink="http://www.w3.org/1999/xlink" width="400" height="400" viewBox="0, 0, 400,400"><g id="svgg"><path id="path0" d="M42.621 87.666 C 17.027 161.875,16.943 162.500,32.614 162.500 C 44.831 162.500,47.998 159.258,53.331 141.292 L 57.308 127.897 83.861 128.792 L 110.414 129.688 115.616 145.313 C 120.653 160.446,121.227 160.968,133.875 161.900 C 153.358 163.336,153.071 159.973,127.463 86.713 L 104.254 20.313 85.369 19.393 L 66.484 18.474 42.621 87.666 M138.093 30.469 L 139.063 42.188 157.031 43.125 L 175.000 44.062 175.000 99.773 C 175.000 161.486,175.695 163.720,194.327 161.932 L 204.688 160.938 205.538 102.344 L 206.388 43.750 225.009 43.750 C 242.262 43.750,243.775 43.176,245.590 35.944 C 249.796 19.186,248.400 18.750,190.534 18.750 L 137.123 18.750 138.093 30.469 M251.694 25.781 C 252.858 29.648,262.093 48.456,272.217 67.575 L 290.625 102.338 290.625 130.797 C 290.625 158.225,290.896 159.324,298.120 161.137 C 318.137 166.161,320.169 163.607,321.905 131.250 C 323.458 102.294,323.978 100.621,342.999 63.329 C 366.292 17.661,366.164 18.750,348.249 18.750 L 333.998 18.750 320.516 47.656 L 307.034 76.563 298.499 57.813 C 293.804 47.500,287.984 34.492,285.564 28.906 C 279.766 15.518,247.717 12.561,251.694 25.781 M93.821 76.563 C 97.722 88.594,101.562 100.195,102.354 102.344 C 103.407 105.199,98.661 106.250,84.709 106.250 C 74.213 106.250,65.625 105.279,65.625 104.092 C 65.625 97.381,82.876 50.415,84.628 52.358 C 85.782 53.639,89.919 64.531,93.821 76.563 M351.602 171.810 C 350.562 173.494,351.060 177.391,352.708 180.470 C 355.310 185.333,350.701 188.810,317.696 206.880 L 279.688 227.690 269.342 209.328 C 262.152 196.567,257.590 191.506,254.386 192.736 C 250.451 194.246,250.397 195.480,254.016 201.159 C 256.348 204.818,269.310 227.852,282.820 252.344 C 296.331 276.836,309.239 296.875,311.505 296.875 C 317.347 296.875,316.809 294.791,306.045 275.718 C 300.776 266.382,296.909 258.332,297.451 257.828 C 301.055 254.485,368.596 218.750,371.311 218.750 C 373.169 218.750,375.980 221.057,377.558 223.876 C 379.136 226.696,382.048 228.001,384.028 226.777 C 386.504 225.247,382.969 215.840,372.721 196.681 C 357.943 169.056,355.259 165.894,351.602 171.810 M187.500 261.068 C 152.266 280.748,122.031 297.350,120.313 297.962 C 117.619 298.922,134.640 334.888,145.242 350.640 C 148.437 355.386,268.547 294.655,282.344 281.317 C 284.879 278.867,256.964 224.845,253.317 225.144 C 252.352 225.223,222.734 241.389,187.500 261.068 M238.982 268.595 C 246.223 282.597,238.417 295.219,229.770 283.490 C 224.839 276.801,218.074 280.397,221.952 287.645 C 226.432 296.014,208.326 306.280,203.692 297.999 C 200.043 291.478,192.910 295.555,195.222 302.840 C 197.541 310.146,182.923 318.548,177.437 313.062 C 171.753 307.378,167.841 308.688,169.666 315.666 C 171.091 321.116,161.122 331.262,157.942 327.597 C 153.517 322.496,146.649 304.751,148.806 303.989 C 150.322 303.453,168.438 293.319,189.063 281.469 C 232.529 256.495,232.702 256.450,238.982 268.595 M106.552 315.438 C 103.255 317.476,103.431 319.437,107.466 325.595 L 112.465 333.225 62.240 361.497 C 25.529 382.162,13.676 390.204,18.190 391.384 C 22.218 392.437,39.420 384.468,67.651 368.472 C 116.628 340.720,115.650 341.027,121.962 351.430 C 133.206 369.960,133.422 354.064,122.203 333.800 C 113.937 318.871,109.473 313.633,106.552 315.438 " stroke="none" fill="#385d8a" fill-rule="evenodd"></path></g></svg>